<?xml version="1.0" encoding="UTF-8"?>
<svg id="Layer_1" data-name="Layer 1" xmlns="http://www.w3.org/2000/svg" viewBox="0 0 492 710.53">
  <defs>
    <style>
      .cls-1 {
        fill: #059967;
      }
    </style>
  </defs>
  <path class="cls-1" d="M468.23,447.45c-6.43-17.06-22.96-40.52-24.24-42.33-.05-.06-.08-.11-.08-.12l-.06-.09-.43-.24-172.24-97.17V114.78c0-3.49-.13-6.95-.37-10.37l.15-.09-.06-.41c-.07-.47-.16-.92-.24-1.37-.45-5.39-1.19-10.68-2.24-15.82-7.06-34.73-19.81-43.35-21.91-44.55-.15-.08-.24-.13-.28-.15l-.22-.11-.22.11s-.13.07-.28.15c-2.1,1.21-14.85,9.82-21.91,44.55-1.04,5.14-1.78,10.43-2.24,15.82-.08.45-.17.9-.24,1.37l-.06.41.15.09c-.24,3.42-.37,6.89-.37,10.37v192.72l-172.24,97.17-.34.19-.16.14s-.04.05-.08.12c-1.28,1.81-17.81,25.27-24.24,42.33-.35.93-.02,1.91.82,2.45.32.2.72.33,1.13.33.5,0,1.01-.18,1.45-.64,4.38-4.52,11.05-10.45,17.97-12.98l117.77-35.65,57.92-2.47v55.9c0,.69.01,1.37.02,2.06v1.61h.01c.07,8.16.38,16.37.92,24.51l-3.06.1c-.25-1.72-1.72-3.04-3.5-3.04h-19.67c-1.96,0-3.56,1.59-3.56,3.56v32.78c0,1.81,1.37,3.29,3.12,3.51.72,4.47,5.09,30.02,10.98,30.02h.02c1.79-.02,4.27-1.85,6.95-14.47l15.82,16.08c3.06,20.68,7,38.66,11.93,46.29l-65.4,43.32c-2.97,1.97-4.75,5.27-4.75,8.83v16.89c0,.71.33,1.36.91,1.77.38.27.81.41,1.26.41.24,0,.48-.04.72-.12l68.95-23.77v4.84c0,1.93,1.57,3.5,3.5,3.5s3.5-1.57,3.5-3.5v-4.84l68.95,23.77c.24.08.48.12.72.12.44,0,.88-.14,1.26-.41.58-.41.91-1.06.91-1.77v-16.89c0-3.56-1.77-6.87-4.75-8.83l-65.4-43.32c4.93-7.63,8.86-25.61,11.93-46.29l15.82-16.08c2.68,12.62,5.16,14.45,6.95,14.47h.02c5.88,0,10.26-25.55,10.98-30.02,1.75-.22,3.12-1.7,3.12-3.51v-32.78c0-1.96-1.59-3.56-3.56-3.56h-19.67c-1.78,0-3.25,1.32-3.5,3.04l-3.06-.1c.62-9.36.95-18.82.95-28.18v-55.9l57.92,2.47,117.75,35.64c6.95,2.54,13.62,8.47,18,12.99.44.45.96.64,1.45.64.41,0,.81-.13,1.13-.33.84-.53,1.17-1.52.82-2.45ZM442.69,405.41l-3.96,4.1-157.69-83.74,5.35-8.53,156.3,88.17ZM224.57,86.92c6.46-31.79,17.95-41.52,20.93-43.56l.5-.32.5.32c2.98,2.04,14.47,11.77,20.93,43.56.61,2.99,1.1,6.03,1.51,9.1-5.78-16.55-19.63-21.81-22.32-22.68-.04-.01-.09-.03-.12-.04-.2-.06-.33-.1-.34-.1l-.16-.04-.16.04s-.14.04-.34.1c-.04.01-.08.03-.12.04-2.69.88-16.54,6.13-22.32,22.68.41-3.08.9-6.12,1.51-9.1ZM246.62,84.64v-9.98c2.32.81,9.32,3.72,15.1,10.85l-4.26,6.51c-2.92-3.9-6.57-7.09-10.84-7.38ZM262.53,86.54c3.17,4.23,5.87,9.82,7.06,17.15l-4.08,2.49c-.19.12-.37.08-.46.05-.16-.05-.28-.17-.34-.33-.94-2.55-3.18-8.03-6.48-12.8l4.29-6.56ZM229.47,86.54l4.29,6.56c-3.3,4.76-5.54,10.25-6.48,12.8-.06.16-.18.27-.34.33-.09.03-.27.07-.46-.05l-4.08-2.49c1.18-7.33,3.89-12.92,7.06-17.15ZM234.54,92.01l-4.26-6.51c5.78-7.13,12.78-10.04,15.1-10.85v9.98c-4.26.29-7.92,3.47-10.84,7.38ZM221.85,456.27v-5.54h.41c.89,0,1.61.72,1.61,1.61v3.11c0,.89-.72,1.61-1.61,1.61h-.4c0-.26,0-.53,0-.79ZM205.61,317.24l5.35,8.53-157.69,83.74-3.96-4.1,156.3-88.17ZM44.83,435.66c-7.12,2.61-13.92,8.64-18.38,13.23-.44.46-.99.37-1.33.16-.35-.22-.64-.66-.42-1.25,5.67-15.06,19.3-35.17,23.16-40.73l-2.13,28.31-.91.27ZM48.92,406.44l4.15,4.3,159.31-84.6-5.9-9.4,14.35-8.1v73.33l-5.84.27-3.08-4h-20.21l-.42,5.09-2.69.12-.84-5.22h-18.19l-4.16,6.29-1.66.08-.48.02v15.29h-.03s-2.69-12.13-2.69-12.13l-4.67,1.52-.89-1.87c-.97-2.04-3.38-3.01-5.5-2.21l-25.32,9.62c-1.16.44-2.08,1.35-2.52,2.5l-1.39,3.58-16.26,5.31v-3.36l-31.75,11.87v12.58l-25.49,7.71,2.15-28.63ZM213.77,382.31l-21.48.99.33-4.05h18.79l2.35,3.05ZM187.59,383.52l-20.96.97,3.46-5.24h16.81l.69,4.26ZM154.91,389.65l-33.42,10.91,1.09-2.81c.34-.89,1.05-1.59,1.94-1.93l25.32-9.62c1.63-.62,3.49.13,4.24,1.7l.83,1.75ZM73.25,415.48l29.75-11.13v13.7l-29.75,9.01v-11.58ZM104,417.75v-10.42l55.8-18.22,2.45,11.01-58.24,17.63ZM164.26,399.9v-14.29l23.49-1.09h0s4.46-.21,4.46-.21h0s28.62-1.33,28.62-1.33v14.5l-56.57,2.42ZM193,483.18c0-1.41,1.15-2.56,2.56-2.56h19.67c1.41,0,2.55,1.15,2.55,2.56v.78h-24.78v-.78ZM193,515.96v-31h24.78v31c0,1.41-1.15,2.56-2.55,2.56h-19.67c-1.41,0-2.56-1.15-2.56-2.56ZM206.11,548.49h-.01c-3.87,0-8.11-17.52-9.96-28.98h18.51c-3.42,25.14-6.81,28.96-8.54,28.98ZM213.31,533.85c.77-3.81,1.56-8.53,2.35-14.38,1.75-.22,3.11-1.7,3.11-3.51v-32.29l3.08-.1c.07,1.08.13,2.16.22,3.23,1.39,18.22,3.54,41.69,6.58,62.64l-15.33-15.58ZM175.96,641.55l65.39-43.31.87,1.08v12.74l-63.53,35.29-3.14-5.47c.14-.1.27-.22.42-.32ZM242.22,643.77l-69,23.78c-.36.13-.75.07-1.07-.15-.31-.22-.49-.57-.49-.96v-16.89c0-2.71,1.14-5.24,3.1-7.04l3.55,6.18,63.91-35.49v30.57ZM248.5,649.57c0,1.38-1.12,2.5-2.5,2.5s-2.5-1.12-2.5-2.5v-49.16c.65.46,1.32.75,2,.84v-1c-.67-.12-1.34-.48-2-1.07v-55.17c0-1.21.86-2.22,2-2.45.16-.03.33-.05.5-.05s.34.02.5.05c1.14.23,2,1.24,2,2.45v55.17c-.66.59-1.33.95-2,1.07v1c.68-.09,1.35-.38,2-.84v49.16ZM320.33,649.55v16.89c0,.38-.18.73-.49.96s-.7.28-1.07.15l-69-23.78v-30.57l63.48,35.25.43.24,3.55-6.18c1.95,1.8,3.1,4.33,3.1,7.04ZM316.04,641.55c.15.1.28.21.42.32l-3.14,5.47-63.53-35.29v-12.74l.87-1.08,65.39,43.31ZM249.99,597.46l-.49.61v-54.05c0-1.76-1.31-3.2-3-3.45-.17-.02-.33-.05-.5-.05s-.34.03-.5.05c-1.69.25-3,1.69-3,3.45v54.05l-.49-.61c-7.44-10.57-14.33-50.31-18.94-110.74-.73-9.49-1.11-19.11-1.2-28.66h.39c1.44,0,2.61-1.17,2.61-2.61v-3.11c0-1.44-1.17-2.61-2.61-2.61h-.43v-6.36h.43c1.44,0,2.61-1.17,2.61-2.61v-3.11c0-1.44-1.17-2.61-2.61-2.61h-.43v-6.36h.43c1.44,0,2.61-1.17,2.61-2.61v-3.11c0-1.44-1.17-2.61-2.61-2.61h-.43v-6.36h.43c1.44,0,2.61-1.17,2.61-2.61v-3.11c0-1.44-1.17-2.61-2.61-2.61h-.43v-6.36h.43c1.44,0,2.61-1.17,2.61-2.61v-3.11c0-1.44-1.17-2.61-2.61-2.61h-.43v-6.36h.43c1.44,0,2.61-1.17,2.61-2.61v-3.11c0-1.44-1.17-2.61-2.61-2.61h-.43v-6.36h1.13c2.38,0,4.24-1.15,4.24-2.61v-3.11c0-1.46-1.86-2.61-4.24-2.61h-1.13v-6.36h.43c1.44,0,2.61-1.17,2.61-2.61v-3.11c0-1.44-1.17-2.61-2.61-2.61h-.43v-6.36h1.13c2.38,0,4.24-1.15,4.24-2.61v-3.11c0-1.46-1.86-2.61-4.24-2.61h-1.13v-6.36h.43c1.44,0,2.61-1.17,2.61-2.61v-3.11c0-1.44-1.17-2.61-2.61-2.61h-.43v-6.36h.43c1.44,0,2.61-1.17,2.61-2.61v-3.11c0-1.44-1.17-2.61-2.61-2.61h-.43v-6.36h.43c1.44,0,2.61-1.17,2.61-2.61v-3.11c0-1.44-1.17-2.61-2.61-2.61h-.43v-6.36h.43c1.44,0,2.61-1.17,2.61-2.61v-3.11c0-1.44-1.17-2.61-2.61-2.61h-.43v-6.36h.43c1.44,0,2.61-1.17,2.61-2.61v-3.11c0-1.44-1.17-2.61-2.61-2.61h-.43v-6.36h.43c1.44,0,2.61-1.17,2.61-2.61v-3.11c0-1.44-1.17-2.61-2.61-2.61h-.43v-6.36h.43c1.44,0,2.61-1.17,2.61-2.61v-3.11c0-1.44-1.17-2.61-2.61-2.61h-.43v-6.37h.43c1.44,0,2.61-1.17,2.61-2.61v-3.11c0-1.44-1.17-2.61-2.61-2.61h-.43v-6.36h.43c1.44,0,2.61-1.17,2.61-2.61v-3.11c0-1.44-1.17-2.61-2.61-2.61h-.43v-6.36h.43c1.44,0,2.61-1.17,2.61-2.61v-3.11c0-1.44-1.17-2.61-2.61-2.61h-.43v-6.36h.43c1.44,0,2.61-1.17,2.61-2.61v-3.11c0-1.44-1.17-2.61-2.61-2.61h-.43v-6.36h.43c1.44,0,2.61-1.17,2.61-2.61v-3.11c0-1.44-1.17-2.61-2.61-2.61h-.43v-6.36h.43c1.44,0,2.61-1.17,2.61-2.61v-3.11c0-1.44-1.17-2.61-2.61-2.61h-.43v-26.29c0-3.29.12-6.55.33-9.78l3.67,2.24c.29.17.61.26.93.26.2,0,.4-.03.59-.1.51-.18.91-.57,1.1-1.08,1.75-4.71,8.06-19.89,17.05-20.44.17-.01.33-.03.5-.03s.33.02.5.03c8.99.55,15.3,15.73,17.05,20.44.19.51.59.9,1.1,1.08.19.07.39.1.59.1.33,0,.65-.09.93-.26l3.67-2.24c.22,3.23.33,6.49.33,9.78v26.29h-.62c-1.44,0-2.61,1.17-2.61,2.61v3.11c0,1.44,1.17,2.61,2.61,2.61h.62v6.36h-.62c-1.44,0-2.61,1.17-2.61,2.61v3.11c0,1.44,1.17,2.61,2.61,2.61h.62v6.36h-.62c-1.44,0-2.61,1.17-2.61,2.61v3.11c0,1.44,1.17,2.61,2.61,2.61h.62v6.36h-.62c-1.44,0-2.61,1.17-2.61,2.61v3.11c0,1.44,1.17,2.61,2.61,2.61h.62v6.36h-.62c-1.44,0-2.61,1.17-2.61,2.61v3.11c0,1.44,1.17,2.61,2.61,2.61h.62v6.36h-.62c-1.44,0-2.61,1.17-2.61,2.61v3.11c0,1.44,1.17,2.61,2.61,2.61h.62v6.37h-.62c-1.44,0-2.61,1.17-2.61,2.61v3.11c0,1.44,1.17,2.61,2.61,2.61h.62v6.36h-.62c-1.44,0-2.61,1.17-2.61,2.61v3.11c0,1.44,1.17,2.61,2.61,2.61h.62v6.36h-.62c-1.44,0-2.61,1.17-2.61,2.61v3.11c0,1.44,1.17,2.61,2.61,2.61h.62v6.36h-.62c-1.44,0-2.61,1.17-2.61,2.61v3.11c0,1.44,1.17,2.61,2.61,2.61h.62v6.36h-.62c-1.44,0-2.61,1.17-2.61,2.61v3.11c0,1.44,1.17,2.61,2.61,2.61h.62v6.36h-.62c-1.44,0-2.61,1.17-2.61,2.61v3.11c0,1.44,1.17,2.61,2.61,2.61h.62v6.36h-.62c-1.44,0-2.61,1.17-2.61,2.61v3.11c0,1.44,1.17,2.61,2.61,2.61h.62v6.36h-1.32c-2.38,0-4.24,1.15-4.24,2.61v3.11c0,1.46,1.86,2.61,4.24,2.61h1.32v6.36h-.62c-1.44,0-2.61,1.17-2.61,2.61v3.11c0,1.44,1.17,2.61,2.61,2.61h.62v6.36h-1.32c-2.38,0-4.24,1.15-4.24,2.61v3.11c0,1.46,1.86,2.61,4.24,2.61h1.32v6.36h-.62c-1.44,0-2.61,1.17-2.61,2.61v3.11c0,1.44,1.17,2.61,2.61,2.61h.62v6.36h-.62c-1.44,0-2.61,1.17-2.61,2.61v3.11c0,1.44,1.17,2.61,2.61,2.61h.62v6.36h-.62c-1.44,0-2.61,1.17-2.61,2.61v3.11c0,1.44,1.17,2.61,2.61,2.61h.62v6.36h-.62c-1.44,0-2.61,1.17-2.61,2.61v3.11c0,1.44,1.17,2.61,2.61,2.61h.62v6.36h-.62c-1.44,0-2.61,1.17-2.61,2.61v3.11c0,1.44,1.17,2.61,2.61,2.61h.62v6.36h-.62c-1.44,0-2.61,1.17-2.61,2.61v3.11c0,1.44,1.17,2.61,2.61,2.61h.59c-.08,9.55-.47,19.17-1.2,28.66-4.62,60.43-11.5,100.17-18.94,110.74ZM221.85,442.36v-6.33h.41c.89,0,1.61.72,1.61,1.61v3.11c0,.89-.72,1.61-1.61,1.61h-.41ZM221.85,427.66v-6.33h.41c.89,0,1.61.72,1.61,1.61v3.11c0,.89-.72,1.61-1.61,1.61h-.41ZM221.85,412.96v-6.33h.41c.89,0,1.61.72,1.61,1.61v3.11c0,.89-.72,1.61-1.61,1.61h-.41ZM221.85,398.27v-6.33h.41c.89,0,1.61.72,1.61,1.61v3.11c0,.89-.72,1.61-1.61,1.61h-.41ZM221.85,383.57v-6.33h.41c.89,0,1.61.72,1.61,1.61v3.11c0,.89-.72,1.61-1.61,1.61h-.41ZM221.85,368.87v-6.33h1.11c1.91,0,3.24.85,3.24,1.61v3.11c0,.76-1.33,1.61-3.24,1.61h-1.11ZM221.85,354.17v-6.33h.41c.89,0,1.61.72,1.61,1.61v3.11c0,.89-.72,1.61-1.61,1.61h-.41ZM221.85,339.48v-6.33h1.11c1.91,0,3.24.85,3.24,1.61v3.11c0,.76-1.33,1.61-3.24,1.61h-1.11ZM221.85,324.78v-6.33h.41c.89,0,1.61.72,1.61,1.61v3.11c0,.89-.72,1.61-1.61,1.61h-.41ZM221.85,310.08v-6.33h.41c.89,0,1.61.72,1.61,1.61v3.11c0,.89-.72,1.61-1.61,1.61h-.41ZM221.85,295.38v-6.33h.41c.89,0,1.61.72,1.61,1.61v3.11c0,.89-.72,1.61-1.61,1.61h-.41ZM221.85,280.69v-6.33h.41c.89,0,1.61.72,1.61,1.61v3.11c0,.89-.72,1.61-1.61,1.61h-.41ZM221.85,265.99v-6.33h.41c.89,0,1.61.72,1.61,1.61v3.11c0,.89-.72,1.61-1.61,1.61h-.41ZM221.85,251.29v-6.33h.41c.89,0,1.61.72,1.61,1.61v3.11c0,.89-.72,1.61-1.61,1.61h-.41ZM221.85,236.59v-6.33h.41c.89,0,1.61.72,1.61,1.61v3.11c0,.89-.72,1.61-1.61,1.61h-.41ZM221.85,221.89v-6.33h.41c.89,0,1.61.72,1.61,1.61v3.11c0,.89-.72,1.61-1.61,1.61h-.41ZM221.85,207.2v-6.33h.41c.89,0,1.61.72,1.61,1.61v3.11c0,.89-.72,1.61-1.61,1.61h-.41ZM221.85,192.5v-6.33h.41c.89,0,1.61.72,1.61,1.61v3.11c0,.89-.72,1.61-1.61,1.61h-.41ZM221.85,177.8v-6.33h.41c.89,0,1.61.72,1.61,1.61v3.11c0,.89-.72,1.61-1.61,1.61h-.41ZM221.85,163.1v-6.33h.41c.89,0,1.61.72,1.61,1.61v3.11c0,.89-.72,1.61-1.61,1.61h-.41ZM221.85,148.41v-6.33h.41c.89,0,1.61.72,1.61,1.61v3.11c0,.89-.72,1.61-1.61,1.61h-.41ZM269.95,142.07v6.33h-.41c-.89,0-1.61-.72-1.61-1.61v-3.11c0-.89.72-1.61,1.61-1.61h.41ZM269.95,156.77v6.33h-.41c-.89,0-1.61-.72-1.61-1.61v-3.11c0-.89.72-1.61,1.61-1.61h.41ZM269.95,171.47v6.33h-.41c-.89,0-1.61-.72-1.61-1.61v-3.11c0-.89.72-1.61,1.61-1.61h.41ZM269.95,186.17v6.33h-.41c-.89,0-1.61-.72-1.61-1.61v-3.11c0-.89.72-1.61,1.61-1.61h.41ZM269.95,200.86v6.33h-.41c-.89,0-1.61-.72-1.61-1.61v-3.11c0-.89.72-1.61,1.61-1.61h.41ZM269.95,215.56v6.33h-.41c-.89,0-1.61-.72-1.61-1.61v-3.11c0-.89.72-1.61,1.61-1.61h.41ZM269.95,230.26v6.33h-.41c-.89,0-1.61-.72-1.61-1.61v-3.11c0-.89.72-1.61,1.61-1.61h.41ZM269.95,244.96v6.33h-.41c-.89,0-1.61-.72-1.61-1.61v-3.11c0-.89.72-1.61,1.61-1.61h.41ZM269.95,259.65v6.33h-.41c-.89,0-1.61-.72-1.61-1.61v-3.11c0-.89.72-1.61,1.61-1.61h.41ZM269.95,274.35v6.33h-.41c-.89,0-1.61-.72-1.61-1.61v-3.11c0-.89.72-1.61,1.61-1.61h.41ZM269.95,289.05v6.33h-.41c-.89,0-1.61-.72-1.61-1.61v-3.11c0-.89.72-1.61,1.61-1.61h.41ZM269.95,303.75v6.33h-.41c-.89,0-1.61-.72-1.61-1.61v-3.11c0-.89.72-1.61,1.61-1.61h.41ZM269.95,318.45v6.33h-.41c-.89,0-1.61-.72-1.61-1.61v-3.11c0-.89.72-1.61,1.61-1.61h.41ZM269.95,333.14v6.33h-1.11c-1.91,0-3.24-.85-3.24-1.61v-3.11c0-.76,1.33-1.61,3.24-1.61h1.11ZM269.95,347.84v6.33h-.41c-.89,0-1.61-.72-1.61-1.61v-3.11c0-.89.72-1.61,1.61-1.61h.41ZM269.95,362.54v6.33h-1.11c-1.91,0-3.24-.85-3.24-1.61v-3.11c0-.76,1.33-1.61,3.24-1.61h1.11ZM269.95,377.24v6.33h-.41c-.89,0-1.61-.72-1.61-1.61v-3.11c0-.89.72-1.61,1.61-1.61h.41ZM269.95,391.93v6.33h-.41c-.89,0-1.61-.72-1.61-1.61v-3.11c0-.89.72-1.61,1.61-1.61h.41ZM269.95,406.63v6.33h-.41c-.89,0-1.61-.72-1.61-1.61v-3.11c0-.89.72-1.61,1.61-1.61h.41ZM269.95,421.33v6.33h-.41c-.89,0-1.61-.72-1.61-1.61v-3.11c0-.89.72-1.61,1.61-1.61h.41ZM269.95,436.03v6.33h-.41c-.89,0-1.61-.72-1.61-1.61v-3.11c0-.89.72-1.61,1.61-1.61h.41ZM269.95,450.72v6.33h-.41c-.89,0-1.61-.72-1.61-1.61v-3.11c0-.89.72-1.61,1.61-1.61h.41ZM285.9,548.49h-.01c-1.73-.02-5.12-3.84-8.54-28.98h18.51c-1.85,11.46-6.09,28.98-9.96,28.98ZM299,515.96c0,1.41-1.15,2.56-2.56,2.56h-19.67c-1.41,0-2.55-1.15-2.55-2.56v-31h24.78v31ZM274.22,483.18c0-1.41,1.15-2.56,2.55-2.56h19.67c1.41,0,2.56,1.15,2.56,2.56v.78h-24.78v-.78ZM273.22,483.67v32.29c0,1.81,1.36,3.29,3.11,3.51.79,5.84,1.58,10.57,2.35,14.38l-15.33,15.58c3.03-20.95,5.19-44.42,6.58-62.64.08-1.07.14-2.15.22-3.23l3.08.1ZM271.17,382.99l28.62,1.33h0s4.46.21,4.46.21h0s23.49,1.09,23.49,1.09v14.31l-56.57-2.43v-14.5ZM278.23,382.31l2.35-3.05h18.79l.33,4.05-21.48-.99ZM304.41,383.52l.69-4.26h16.81l3.46,5.24-20.96-.97ZM388,407.32v10.42l-58.24-17.63,2.45-11.01,55.8,18.22ZM337.09,389.65l.83-1.75c.75-1.57,2.61-2.33,4.24-1.7l25.32,9.62c.89.34,1.6,1.04,1.94,1.93l1.09,2.82-33.42-10.91ZM418.75,427.06l-29.75-9.01v-13.7l29.75,11.13v11.58ZM419.75,427.36v-12.58l-31.75-11.87v3.36l-16.26-5.31-1.38-3.58c-.45-1.15-1.37-2.07-2.52-2.5l-25.32-9.62c-2.11-.8-4.53.17-5.5,2.21l-.89,1.87-4.67-1.52-2.7,12.14h-.02v-15.31l-2.14-.1-4.16-6.29h-18.19l-.84,5.22-2.69-.12-.42-5.09h-20.21l-3.08,4-5.84-.27v-73.33l14.35,8.1-5.9,9.4,158.97,84.42.33.18,4.15-4.3,2.15,28.63-25.49-7.71ZM466.88,449.05c-.34.21-.89.3-1.33-.16-4.45-4.6-11.25-10.62-18.4-13.24l-.88-.27-2.13-28.31c3.86,5.56,17.48,25.67,23.16,40.73.22.58-.07,1.03-.42,1.25Z"/>
  <path class="cls-1" d="M246.5,601.29v-.04c-.17.02-.33.04-.5.04h.5Z"/>
  <path class="cls-1" d="M246,601.29c-.17,0-.33-.02-.5-.04v.04h.5Z"/>
</svg>