<?xml version="1.0" encoding="UTF-8"?>
<svg id="Layer_1" data-name="Layer 1" xmlns="http://www.w3.org/2000/svg" viewBox="0 0 814.23 658.98">
  <defs>
    <style>
      .cls-1 {
        fill: #fff;
      }
    </style>
  </defs>
  <path class="cls-1" d="M721.68,217.71c1.34.94,7.26-5.67,8.5-6.98,12.5-13.11,29.88-37.56,35.25-54.77,1.03-3.29-1.18-6.18,4.79-7.19,7.07-1.2,10.66,2.64,10.53,9.45l-11.08,61.49c15.07-5.55,25.98-19.49,35.98-31.5,8.65-3.09,10.48,6.26,6.71,12.22-6.44,4.24-10.96,10.79-16.69,15.8-7.76,6.77-27.88,17.17-31.05,24.95-2.14,5.24-2.98,12.42-4.94,18.06-8.18,23.55-25.28,74.63-56.56,72.52-15.52-1.05-19.21-18.2-15.95-31.03,7.63-30.01,39.13-54.39,64.54-69.46,1.43-1.89,5.58-25.81,5.68-29.35.05-1.62.5-2.03-1.24-3.19-2.17.05-20.42,29.94-28.44,32.53-15.58,5.04-22.55-6.65-23.07-20.55-10.11,10.44-23.67,28.7-40.38,20.89-8.85-4.13-11.27-12.64-12.48-21.52-.31-2.27.67-11.22-1.62-11.35-3.6,1.4-7.17,3.97-10.52,5.47-6.78,3.04-16.63,6.05-22.69,9.31-.94.51-2.97,1.69-3.05,2.69,9.76,17.05,8.75,34.47,3.47,52.73-3.24,11.21-9.8,25.91-22.67,28.37-13.4,2.56-17.42-11.49-17.08-22.13.56-17.31,6.44-35.49,7.07-51.01.19-4.6-3.05-6.82-2.01-11.92.71-3.49,4.71-3.46,6.22-6.78,1.81-3.96,2.03-10.92,3.77-15.23.1-2.51-11.68,6.84-13.82-.22-2.58-8.5,15.26-15.61,19.23-22.37,3.96-6.73,7.58-25.63,10.55-34.45,5.25-15.58,16.92-54.26,30.67-62.33,6.66-3.9,13.98-3.19,18.87,2.83,15.33,18.87-14.8,60.57-27.1,75.94-4.72,5.9-14.38,13.89-17.63,19.37-2.55,4.31-7.83,23.22-8.58,28.46-.21,1.48-.6,2.9.21,4.32,2.64,3.7,17.12-3.62,20.78-5.36,6.65-3.15,21.53-11.55,25.78-17.22,4.95-6.61,5.19-18.43,7.5-26.5,4.78-16.77,19.72-61.71,34-71,11.18-7.27,20.1,1.74,20.3,13.51.33,19.34-20.56,61.64-32.36,77.43-7.17,9.59-13.76,11.48-15.33,25.67s1.93,28.2,17.94,16.94c6.88-4.84,22.57-26.19,26.98-34.02,3.44-6.12,9.76-25.37,15.24-27.78,4.88-2.15,11.03,2.61,10.82,7.73-.14,3.47-7.11,16.6-8.83,21.28-3.97,10.77-9.26,23.78-6.24,35.25ZM649.66,85.72c-2.35-2.68-12.68,14.45-13.52,15.97-6.67,12.16-11.19,25.87-15.48,39.01,2.52-.31,4.92-4.14,6.41-6.08,7.72-10.03,20.98-31.16,22.48-43.52.22-1.79.14-3.6.1-5.39ZM700.66,97.72c-2.59-.6-1.74.77-2.57,1.89-12.22,16.45-19.61,42.58-25.42,62.1,2.59.61,1.75-.77,2.58-1.89,12.84-17.27,23.03-40.67,25.42-62.1ZM593.68,280.71c3.95,2.65,10.49-12.18,11.48-15.01,4.21-12.1,8.09-33.65-4-41.96-2.1,1.75-2.43,4.47-3.03,6.94-1.97,8.21-3.44,19.21-4.32,27.68-.77,7.39-2.29,15.01-.13,22.35ZM747.66,249.71c-16.29,11.77-35.74,26.63-43.85,45.64-2.72,6.37-7.8,23.39,4.29,21.3,10.04-1.74,24.82-27.77,29.05-36.96,1.64-3.57,11.55-28.66,10.51-29.98Z"/>
  <path class="cls-1" d="M621.47,575.01c-1.83,1.92-1.19,1.09-2.46.16-2.57-1.87-5.56-4.37-8.06-6.44-65.22-53.96-154.87-144.38-194.21-218.61-10.51-19.83-18.55-40.91-25.57-62.17-15.03-7.59-10.63,8.04-8.24,16.5,20.3,71.76,83.32,143.76,133.61,196.75,17.64,18.59,35.73,37.07,54.96,54.08,14.28,12.63,30.35,23.47,43.77,37-19.49-3.75-38.09-12.37-57.19-17.97-6.51-1.64-11.21,5.64-7.1,10.92,1.28,1.64,7.25,4.21,9.49,5.14,22.21,9.21,48.07,13.94,70.7,22.43,12.05,1.49,15.97-5.01,12.99-15.98-3.05-11.25-8.91-22.85-12.47-34.21-2.33-7.43-8.82-39.12-12.96-42.47-5.25-4.25-14.13,1.43-12.63,8.74.52,2.53,2.2,4.35,2.93,6.59,4.27,13.14,7.56,26.59,12.42,39.54Z"/>
  <g>
    <path class="cls-1" d="M232.68,187.71c11.72-13.57,21.94-36.95,43.54-34.05,6.88.92,7.83,8.88,7.48,14.59-.49,8.1-14.05,49.97-8.95,53.37,4.28.83,8.62-4.81,11.43-7.89,10.1-11.1,8.8-19.22,14.61-31.39,7.44-15.58,27.78-38.41,46.94-34.19,7.2,1.58,6.11,5.95,9.48,9.52,1.91,2.03,6.13,2.16,6.47,5.57-3.47,15.23-16.54,40.19-10.53,55.48.5,1.27,1.05,3.04,2.84,2.88,4.22-.37,21.58-22.03,23.41-26.64,2.38-5.99,9.42-36.19,10.15-42.87.12-1.12.26-2.23.08-3.35-7.24-2.14-18.26,1.86-21.5-7.03-.72-1.98.26-5.84,1.95-7.08,2.95-2.16,19.53,2.91,24.06-1.92,2.11-2.25,7.27-25.01,9.48-30.52,2.02-5.01,3.97-10.71,10.81-8.84,8.16,2.22,4.45,12.57,2.93,18.58-1.61,6.37-4.62,13.92-6.69,20.29.11,2.3,15.78,1.56,18.52,1.54s5-1.32,7.86-1.02c6.51.67,10.03,7.87,3.91,11.79l-32.89,3.11c-2.23,1.56-6.99,20.95-7.96,25.04-2.94,12.39-7.81,34.23-6.49,46.56,1.69,15.78,17.3-.48,22-6.05,4.14-4.91,10.43-19.91,17.43-15.36,9.73,6.33-11.48,28.33-16.93,32.86-18.21,15.15-33.53,10.22-38.48-12.97-7.31,5.5-11.28,15.98-21.49,17-15.37,1.53-18.81-9.14-20.51-22-8.91,7.42-18.66,26.78-32.88,20.38-5.25-2.36-5.29-6.86-9.59-9.39-7.01,10.22-15.79,16.81-28.21,10.2-10.07-5.36-6.59-24.14-4.81-33.21.5-2.56,9.23-30.99,7-31-6.67,2.55-11.05,9.41-14.91,15.09-11.17,16.48-19.43,35.03-28.11,52.89-7.61,6.85-14.69.73-14.55-8.47.2-13.34,7.42-39.36,10.76-53.32,5.26-22.01,11.65-50.12,18.82-71.18,1.12-3.28,6.31-15.61,8.06-17.94,5.08-6.79,15.89-6.92,16.25,3.19-12.98,31.63-22.59,64.58-30.8,97.75ZM307.67,219.72c2.01.28,3.35-.54,4.94-1.56,8.4-5.36,30.05-38.77,32.58-48.41,3.94-15.01-10.6-5.93-16.18-.68-12.6,11.85-23.21,33.18-21.34,50.65Z"/>
    <path class="cls-1" d="M136.01,242.37c-14.35-13.45-11.83-53.15-13.36-71.65-1.54.25-1.89,1.86-2.48,3.01-9.49,18.58-26.59,65.13-45.14,73.86-17.3,8.14-26.17-9.86-27.41-24.43-1.68-19.59,7.08-63.67,11.27-84.71,2.93-14.7,7.62-29.45,10.88-44.12,3.97-6.41,15.73-2.55,13.96,5.88-6.34,37.08-21.73,80.2-20.7,117.83.83,30.44,14.11,7.97,21.42-4.03,7.42-12.18,13.97-26.09,19.91-39.09,7.42-16.24,12.92-33.88,21.95-49.05,13.49-2.36,13.26,8.27,13.38,18.27.26,20.93-1.7,41.95-.03,63.05,3.1,39.05,19.71,26.04,32.17,1.19,12.41-24.74,25.68-62.01,29.69-89.31,1.17-7.94-.27-28.34,7.56-31.44,9.26-3.67,12.56,3.1,11.48,11.49-1.58,12.35-7.56,34.34-10.78,47.21-6.18,24.72-24.47,78.15-44.12,93.88-8.41,6.74-20.92,10.34-29.67,2.14Z"/>
    <path class="cls-1" d="M537.87,101.93c-.73,9.72-5.24,18.44-7.92,27.57-9.5,32.38-17.28,65.23-26.21,97.84-2.33,10.4,14.42.97,15.93,9.92,1.23,7.27-5.99,8-11.52,8.44-6.65.52-19.44.56-26.02.05s-15.22-1.85-11.56-10.64l13.47-2.53,1.47-1.53,36.17-130.33-12.76-2.24c-1.94-3.3-2.11-8.68,2.45-9.52,3.5-.65,10.89-1.1,14.76-1.28,5.92-.28,27.42-1.68,29.33,4.76,3.37,11.36-15.48,6.56-17.59,9.5Z"/>
  </g>
</svg>